<svg width="24" height="24" viewBox="0 0 24 24" fill="none" xmlns="http://www.w3.org/2000/svg">
<path d="M12.0001 7.19445C9.33995 7.19445 7.19308 9.34132 7.19308 12.0015C7.19308 14.6616 9.33995 16.8085 12.0001 16.8085C14.6603 16.8085 16.8071 14.6616 16.8071 12.0015C16.8071 9.34132 14.6603 7.19445 12.0001 7.19445ZM12.0001 15.1257C10.2798 15.1257 8.87589 13.7218 8.87589 12.0015C8.87589 10.2812 10.2798 8.87726 12.0001 8.87726C13.7204 8.87726 15.1243 10.2812 15.1243 12.0015C15.1243 13.7218 13.7204 15.1257 12.0001 15.1257ZM17.004 5.87726C16.3829 5.87726 15.8814 6.37882 15.8814 6.99992C15.8814 7.62101 16.3829 8.12257 17.004 8.12257C17.6251 8.12257 18.1267 7.62335 18.1267 6.99992C18.1269 6.85243 18.0979 6.70637 18.0416 6.57008C17.9852 6.43378 17.9026 6.30995 17.7983 6.20567C17.694 6.10138 17.5701 6.01869 17.4339 5.96234C17.2976 5.90599 17.1515 5.87707 17.004 5.87726V5.87726ZM21.3704 12.0015C21.3704 10.7077 21.3821 9.4257 21.3095 8.13429C21.2368 6.63429 20.8946 5.30304 19.7978 4.20617C18.6985 3.10695 17.3696 2.7671 15.8696 2.69445C14.5759 2.62179 13.2939 2.63351 12.0025 2.63351C10.7087 2.63351 9.42667 2.62179 8.13527 2.69445C6.63527 2.7671 5.30402 3.10929 4.20714 4.20617C3.10792 5.30538 2.76808 6.63429 2.69542 8.13429C2.62277 9.42804 2.63449 10.7101 2.63449 12.0015C2.63449 13.2929 2.62277 14.5773 2.69542 15.8687C2.76808 17.3687 3.11027 18.6999 4.20714 19.7968C5.30636 20.896 6.63527 21.2359 8.13527 21.3085C9.42902 21.3812 10.711 21.3694 12.0025 21.3694C13.2962 21.3694 14.5782 21.3812 15.8696 21.3085C17.3696 21.2359 18.7009 20.8937 19.7978 19.7968C20.897 18.6976 21.2368 17.3687 21.3095 15.8687C21.3845 14.5773 21.3704 13.2952 21.3704 12.0015V12.0015ZM19.3079 17.528C19.1368 17.9546 18.9306 18.2734 18.6001 18.6015C18.2696 18.9319 17.9532 19.1382 17.5267 19.3093C16.2939 19.7991 13.3665 19.689 12.0001 19.689C10.6337 19.689 7.70402 19.7991 6.47121 19.3116C6.04464 19.1405 5.72589 18.9343 5.39777 18.6038C5.0673 18.2734 4.86105 17.9569 4.68996 17.5304C4.20246 16.2952 4.31261 13.3679 4.31261 12.0015C4.31261 10.6351 4.20246 7.70538 4.68996 6.47257C4.86105 6.04601 5.0673 5.72726 5.39777 5.39913C5.72824 5.07101 6.04464 4.86242 6.47121 4.69132C7.70402 4.20382 10.6337 4.31398 12.0001 4.31398C13.3665 4.31398 16.2962 4.20382 17.529 4.69132C17.9556 4.86242 18.2743 5.06867 18.6025 5.39913C18.9329 5.7296 19.1392 6.04601 19.3103 6.47257C19.7978 7.70538 19.6876 10.6351 19.6876 12.0015C19.6876 13.3679 19.7978 16.2952 19.3079 17.528Z" fill="black"/>
</svg>
