<svg width="24" height="24" viewBox="0 0 24 24" fill="none" xmlns="http://www.w3.org/2000/svg">
<path d="M23.643 4.93561C22.808 5.30561 21.911 5.55561 20.968 5.66861C21.941 5.0864 22.669 4.17008 23.016 3.09061C22.1019 3.6336 21.1014 4.01581 20.058 4.22061C19.3564 3.47148 18.4271 2.97494 17.4143 2.80809C16.4016 2.64123 15.3621 2.8134 14.4572 3.29786C13.5524 3.78233 12.8328 4.55197 12.4102 5.48732C11.9875 6.42266 11.8855 7.47136 12.12 8.47061C10.2677 8.37761 8.45564 7.89616 6.80144 7.05752C5.14723 6.21887 3.68785 5.04177 2.51801 3.60261C2.11801 4.29261 1.88801 5.09261 1.88801 5.94461C1.88757 6.71161 2.07644 7.46685 2.43789 8.14334C2.79934 8.81983 3.32217 9.39665 3.96001 9.82261C3.22029 9.79907 2.49688 9.5992 1.85001 9.23961V9.29961C1.84994 10.3754 2.22204 11.418 2.90319 12.2506C3.58434 13.0832 4.53258 13.6545 5.58701 13.8676C4.9008 14.0533 4.18135 14.0807 3.48301 13.9476C3.78051 14.8732 4.36001 15.6826 5.14038 16.2625C5.92075 16.8424 6.86293 17.1638 7.83501 17.1816C6.18485 18.477 4.1469 19.1797 2.04901 19.1766C1.67739 19.1767 1.30609 19.155 0.937012 19.1116C3.06649 20.4808 5.54535 21.2074 8.07701 21.2046C16.647 21.2046 21.332 14.1066 21.332 7.95061C21.332 7.75061 21.327 7.54861 21.318 7.34861C22.2293 6.68959 23.0159 5.87351 23.641 4.93861L23.643 4.93561V4.93561Z" fill="black"/>
</svg>
