<svg width="22" height="24" viewBox="0 0 22 24" fill="none" xmlns="http://www.w3.org/2000/svg">
<path d="M16.3043 8.64117C17.9094 9.74558 19.8758 10.3954 21.9996 10.3954V6.46189C21.5977 6.46197 21.1968 6.42158 20.8035 6.34139V9.43764C18.6799 9.43764 16.7138 8.7879 15.1083 7.68357V15.7108C15.1083 19.7265 11.7261 22.9816 7.55439 22.9816C5.9978 22.9816 4.55096 22.5286 3.34912 21.7518C4.72086 23.1018 6.63382 23.9393 8.75012 23.9393C12.9222 23.9393 16.3045 20.6842 16.3045 16.6683V8.64117H16.3043V8.64117ZM17.7798 4.67273C16.9595 3.81013 16.4208 2.69538 16.3043 1.46293V0.957031H15.1709C15.4562 2.5234 16.4293 3.86161 17.7797 4.67273H17.7798ZM5.98775 18.6704C5.52943 18.092 5.28169 17.3844 5.2828 16.6568C5.2828 14.8203 6.82976 13.3311 8.73835 13.3311C9.09398 13.3309 9.44751 13.3835 9.78653 13.4869V9.46544C9.39036 9.41322 8.99057 9.39096 8.59096 9.39916V12.5293C8.25179 12.4257 7.89807 12.3732 7.54227 12.3735C5.63377 12.3735 4.08689 13.8625 4.08689 15.6993C4.08689 16.9981 4.86007 18.1226 5.98775 18.6704Z" fill="#FF004F"/>
<path d="M15.1079 7.68349C16.7134 8.78782 18.6794 9.43756 20.8031 9.43756V6.34131C19.6177 6.09825 18.5683 5.50205 17.7793 4.67273C16.4288 3.86153 15.4558 2.52332 15.1704 0.957031H12.1933V16.6682C12.1865 18.4998 10.6422 19.9828 8.73776 19.9828C7.61559 19.9828 6.61854 19.468 5.98716 18.6703C4.85966 18.1226 4.08639 16.9981 4.08639 15.6994C4.08639 13.8627 5.63327 12.3736 7.54177 12.3736C7.90743 12.3736 8.25986 12.4284 8.59047 12.5293V9.39924C4.49193 9.48076 1.1958 12.704 1.1958 16.6683C1.1958 18.6472 2.01659 20.4411 3.34879 21.752C4.55063 22.5286 5.99739 22.9817 7.55406 22.9817C11.7259 22.9817 15.108 19.7264 15.108 15.7108V7.68357H15.1079V7.68349Z" fill="black"/>
<path d="M20.8033 6.34179V5.50477C19.7343 5.50633 18.6865 5.21819 17.7795 4.6733C18.5824 5.51927 19.6395 6.10265 20.8033 6.34196V6.34179ZM15.1705 0.957517C15.1434 0.807857 15.1225 0.657195 15.108 0.505903V0H10.9973V15.7113C10.9907 17.5428 9.44642 19.0258 7.54188 19.0258C7.00195 19.0266 6.46941 18.905 5.98727 18.671C6.61865 19.4686 7.6157 19.9833 8.73787 19.9833C10.6422 19.9833 12.1867 18.5004 12.1934 16.6688V0.9576H15.1705V0.957517ZM8.59083 9.39972V8.5085C8.24733 8.46328 7.90103 8.44066 7.55434 8.4408C3.38207 8.4408 0 11.696 0 15.7113C0 18.2287 1.3292 20.4473 3.34907 21.7524C2.01687 20.4416 1.19608 18.6476 1.19608 16.6687C1.19608 12.7046 4.49213 9.48132 8.59083 9.39981V9.39972Z" fill="#00F2EA"/>
</svg>
